#N canvas 0 0 1916 1119 12;
#X obj 661 287 cppcounter;
#X floatatom 662 321 5 0 0 0 - - - 0;
#X floatatom 626 226 5 0 0 0 - - - 0;
#X floatatom 705 230 5 0 0 0 - - - 0;
#X floatatom 765 233 5 0 0 0 - - - 0;
#X obj 568 241 bng 20 250 50 0 empty empty empty 0 -10 0 12 #fcfcfc #000000 #000000;
#X connect 0 0 1 0;
#X connect 2 0 0 1;
#X connect 3 0 0 2;
#X connect 4 0 0 3;
#X connect 5 0 0 0;
